<svg xmlns="http://www.w3.org/2000/svg" width="1024" height="1024" viewBox="0 0 1024 1024">
<g>
<path d="M 185.06 581.25 L 185.00 586.00 L 168.17 586.00 C158.91,586.00 151.03,585.70 150.67,585.33 C150.30,584.97 150.00,550.27 150.00,508.23 C150.00,440.28 150.17,431.85 151.52,432.37 C152.35,432.69 170.47,444.52 191.77,458.65 C213.07,472.78 239.66,490.37 250.85,497.74 L 271.21 511.13 L 280.35 505.36 C285.38,502.18 312.36,484.60 340.29,466.29 C368.22,447.98 391.29,433.00 391.54,433.00 C391.79,433.00 392.00,442.37 392.00,453.83 L 392.00 474.65 L 384.25 479.53 C363.42,492.65 331.39,512.93 322.00,518.95 C316.23,522.66 302.58,531.42 291.68,538.43 C280.78,545.43 271.26,550.93 270.52,550.65 C269.78,550.36 250.87,537.92 228.50,523.00 C206.13,508.08 187.30,495.67 186.66,495.42 C185.79,495.09 185.45,505.28 185.31,535.74 C185.21,558.16 185.10,578.64 185.06,581.25 ZM 773.36 563.33 L 749.21 586.00 L 725.17 586.00 C711.94,586.00 700.90,585.65 700.63,585.22 C700.37,584.78 720.66,565.32 745.73,541.97 C770.79,518.61 806.16,485.44 824.31,468.25 L 857.33 437.00 L 882.66 437.00 C896.60,437.00 908.00,437.13 908.00,437.29 C908.00,437.45 890.00,454.20 868.00,474.51 C846.00,494.82 828.00,511.75 828.00,512.13 C828.00,512.51 845.55,528.88 867.00,548.50 C888.45,568.12 906.00,584.59 906.00,585.09 C906.00,585.61 895.55,586.00 881.44,586.00 L 856.88 586.00 L 843.19 573.28 C835.66,566.29 823.52,554.97 816.22,548.13 L 802.93 535.69 L 800.22 538.17 C798.72,539.53 786.64,550.85 773.36,563.33 ZM 391.76 542.75 L 391.50 585.50 L 373.94 585.77 C364.28,585.92 356.07,585.73 355.69,585.36 C355.31,584.98 355.00,571.01 355.00,554.32 L 355.00 523.97 L 357.78 522.24 C359.30,521.28 367.15,515.89 375.21,510.25 C383.26,504.61 390.35,500.00 390.94,500.00 C391.70,500.00 391.94,512.61 391.76,542.75 ZM 774.09 489.79 C767.53,495.96 761.97,501.00 761.74,501.00 C761.36,501.00 709.98,454.35 697.00,442.22 L 691.50 437.08 L 742.96 437.00 L 764.23 457.02 C775.93,468.04 785.62,477.39 785.76,477.81 C785.91,478.24 780.66,483.62 774.09,489.79 Z" fill="rgb(2,2,2)"/>
<path d="M 539.59 580.50 C534.86,586.00 530.58,590.64 530.07,590.81 C529.56,590.98 520.67,580.46 510.32,567.42 C499.97,554.39 482.33,532.20 471.12,518.11 C459.92,504.03 448.14,489.09 444.96,484.92 L 439.17 477.34 L 445.34 474.20 C448.73,472.47 457.10,468.11 463.95,464.51 C470.80,460.91 476.76,458.09 477.19,458.23 C477.62,458.38 479.89,461.02 482.24,464.11 C484.58,467.19 493.48,478.62 502.00,489.50 C510.52,500.38 519.97,512.45 523.00,516.32 C526.03,520.19 528.97,523.51 529.55,523.69 C530.63,524.04 533.64,521.27 591.50,466.50 C691.45,371.89 770.73,298.40 771.75,299.42 C773.38,301.04 615.94,491.65 539.59,580.50 Z" fill="rgb(3,3,247)"/>
<path d="M 0.00 512.00 L 0.00 0.00 L 512.00 0.00 L 1024.00 0.00 L 1024.00 512.00 L 1024.00 1024.00 L 512.00 1024.00 L 0.00 1024.00 L 0.00 512.00 ZM 539.59 580.50 C615.94,491.65 773.38,301.04 771.75,299.42 C770.73,298.40 691.45,371.89 591.50,466.50 C533.64,521.27 530.63,524.04 529.55,523.69 C528.97,523.51 526.03,520.19 523.00,516.32 C519.97,512.45 510.52,500.38 502.00,489.50 C493.48,478.62 484.58,467.19 482.24,464.11 C479.89,461.02 477.62,458.38 477.19,458.23 C476.76,458.09 470.80,460.91 463.95,464.51 C457.10,468.11 448.73,472.47 445.34,474.20 L 439.17 477.34 L 444.96 484.92 C448.14,489.09 459.92,504.03 471.12,518.11 C482.33,532.20 499.97,554.39 510.32,567.42 C520.67,580.46 529.56,590.98 530.07,590.81 C530.58,590.64 534.86,586.00 539.59,580.50 ZM 185.06 581.25 C185.10,578.64 185.21,558.16 185.31,535.74 C185.45,505.28 185.79,495.09 186.66,495.42 C187.30,495.67 206.13,508.08 228.50,523.00 C250.87,537.92 269.78,550.36 270.52,550.65 C271.26,550.93 280.78,545.43 291.68,538.43 C302.58,531.42 316.23,522.66 322.00,518.95 C331.39,512.93 363.42,492.65 384.25,479.53 L 392.00 474.65 L 392.00 453.83 C392.00,442.37 391.79,433.00 391.54,433.00 C391.29,433.00 368.22,447.98 340.29,466.29 C312.36,484.60 285.38,502.18 280.35,505.36 L 271.21 511.13 L 250.85 497.74 C239.66,490.37 213.07,472.78 191.77,458.65 C170.47,444.52 152.35,432.69 151.52,432.37 C150.17,431.85 150.00,440.28 150.00,508.23 C150.00,550.27 150.30,584.97 150.67,585.33 C151.03,585.70 158.91,586.00 168.17,586.00 L 185.00 586.00 L 185.06 581.25 ZM 391.76 542.75 C391.94,512.61 391.70,500.00 390.94,500.00 C390.35,500.00 383.26,504.61 375.21,510.25 C367.15,515.89 359.30,521.28 357.78,522.24 L 355.00 523.97 L 355.00 554.32 C355.00,571.01 355.31,584.98 355.69,585.36 C356.07,585.73 364.28,585.92 373.94,585.77 L 391.50 585.50 L 391.76 542.75 ZM 773.36 563.33 C786.64,550.85 798.72,539.53 800.22,538.17 L 802.93 535.69 L 816.22 548.13 C823.52,554.97 835.66,566.29 843.19,573.28 L 856.88 586.00 L 881.44 586.00 C895.55,586.00 906.00,585.61 906.00,585.09 C906.00,584.59 888.45,568.12 867.00,548.50 C845.55,528.88 828.00,512.51 828.00,512.13 C828.00,511.75 846.00,494.82 868.00,474.51 C890.00,454.20 908.00,437.45 908.00,437.29 C908.00,437.13 896.60,437.00 882.66,437.00 L 857.33 437.00 L 824.31 468.25 C806.16,485.44 770.79,518.61 745.73,541.97 C720.66,565.32 700.37,584.78 700.63,585.22 C700.90,585.65 711.94,586.00 725.17,586.00 L 749.21 586.00 L 773.36 563.33 ZM 774.09 489.79 C780.66,483.62 785.91,478.24 785.76,477.81 C785.62,477.39 775.93,468.04 764.23,457.02 L 742.96 437.00 L 717.23 437.04 L 691.50 437.08 L 697.00 442.22 C709.98,454.35 761.36,501.00 761.74,501.00 C761.97,501.00 767.53,495.96 774.09,489.79 Z" fill="rgb(253,253,253)"/>
</g>
</svg>