<svg xmlns="http://www.w3.org/2000/svg" width="1024" height="1024" viewBox="0 0 1024 1024">
<g>
<path d="M 0.00 0.00 L 1024.00 0.00 L 1024.00 1024.00 L 0.00 1024.00 ZM 124.48 604.75 C124.82,605.69 129.43,606.00 142.86,606.00 L 160.79 606.00 L 161.36 598.25 C161.67,593.99 161.87,571.94 161.79,549.25 C161.72,526.57 161.96,507.71 162.33,507.34 C162.69,506.98 170.87,512.04 180.50,518.59 C190.13,525.14 210.88,539.16 226.61,549.74 L 255.22 568.99 L 270.36 559.21 C278.69,553.84 295.62,542.78 308.00,534.63 C320.38,526.49 342.76,511.78 357.75,501.93 L 385.00 484.03 L 385.00 462.41 C385.00,445.51 384.73,440.89 383.75,441.28 C383.06,441.55 372.15,448.87 359.50,457.55 C323.93,481.96 256.28,527.00 255.19,527.00 C253.98,527.00 222.26,506.02 167.61,469.06 C144.78,453.63 125.52,441.00 124.80,441.00 C123.74,441.00 123.55,455.98 123.76,522.25 C123.90,566.94 124.23,604.06 124.48,604.75 ZM 523.83 607.73 C526.40,611.16 528.78,613.97 529.13,613.98 C529.47,613.99 530.37,613.14 531.13,612.09 C532.36,610.38 558.06,578.39 562.14,573.50 C565.85,569.05 582.90,547.72 592.39,535.66 C597.95,528.59 612.85,509.84 625.50,494.00 C638.15,478.15 652.37,460.30 657.11,454.34 C678.91,426.88 701.45,398.90 732.71,360.49 C759.86,327.12 776.34,306.31 776.92,304.69 C777.61,302.70 762.49,316.47 729.97,347.43 C724.73,352.42 712.58,363.92 702.97,372.98 C693.36,382.05 679.88,394.88 673.00,401.49 C613.36,458.88 604.56,467.42 542.77,527.93 L 529.03 541.38 L 526.77 539.23 C525.52,538.05 512.80,522.01 498.50,503.58 C484.20,485.16 471.93,470.06 471.23,470.04 C469.41,469.98 441.86,484.45 435.00,489.06 L 432.67 490.63 L 439.59 499.22 C443.39,503.94 449.88,512.16 454.00,517.47 C458.12,522.79 465.11,531.72 469.51,537.32 C473.92,542.92 483.37,555.11 490.51,564.40 C497.66,573.70 507.02,585.85 511.33,591.40 C515.64,596.96 521.26,604.30 523.83,607.73 ZM 696.23 603.75 C695.92,604.73 701.32,605.00 721.02,605.00 L 746.20 605.00 L 753.35 598.35 C757.28,594.69 770.98,582.04 783.78,570.24 L 807.07 548.77 L 812.78 554.09 C815.93,557.01 829.38,569.66 842.68,582.20 L 866.86 605.00 L 891.87 605.00 C905.63,605.00 917.12,604.62 917.40,604.16 C917.69,603.69 914.45,600.17 910.21,596.33 C905.97,592.48 897.31,584.65 890.96,578.92 C884.61,573.19 870.27,560.17 859.10,550.00 C847.92,539.83 837.21,530.15 835.30,528.49 L 831.83 525.48 L 852.22 507.49 C884.77,478.77 916.90,449.97 917.53,448.95 C917.90,448.36 908.09,448.01 891.81,448.02 L 865.50 448.05 L 847.50 464.66 C837.60,473.80 812.85,496.46 792.50,515.02 C707.83,592.22 696.62,602.56 696.23,603.75 ZM 348.69 605.36 C349.07,605.73 357.28,605.92 366.94,605.77 L 384.50 605.50 L 384.76 558.64 C384.99,516.96 384.85,511.84 383.49,512.36 C382.65,512.69 374.32,518.17 364.98,524.54 L 348.00 536.13 L 348.00 570.40 C348.00,589.25 348.31,604.98 348.69,605.36 ZM 750.36 498.84 L 767.22 514.02 L 774.86 507.09 C779.06,503.28 784.74,497.87 787.47,495.07 L 792.44 489.98 L 789.47 487.15 C787.84,485.59 777.64,476.14 766.82,466.14 L 747.13 447.97 L 720.85 448.23 L 694.57 448.50 L 714.03 466.08 C724.74,475.75 741.09,490.50 750.36,498.84 Z" fill="rgb(0,0,0)"/>
<path d="M 523.83 607.73 C521.26,604.30 515.64,596.96 511.33,591.40 C507.02,585.85 497.66,573.70 490.51,564.40 C483.37,555.11 473.92,542.92 469.51,537.32 C465.11,531.72 458.12,522.79 454.00,517.47 C449.88,512.16 443.39,503.94 439.59,499.22 L 432.67 490.63 L 435.00 489.06 C441.86,484.45 469.41,469.98 471.23,470.04 C471.93,470.06 484.20,485.16 498.50,503.58 C512.80,522.01 525.52,538.05 526.77,539.23 L 529.03 541.38 L 542.77 527.93 C604.56,467.42 613.36,458.88 673.00,401.49 C679.88,394.88 693.36,382.05 702.97,372.98 C712.58,363.92 724.73,352.42 729.97,347.43 C762.49,316.47 777.61,302.70 776.92,304.69 C776.34,306.31 759.86,327.12 732.71,360.49 C701.45,398.90 678.91,426.88 657.11,454.34 C652.37,460.30 638.15,478.15 625.50,494.00 C612.85,509.84 597.95,528.59 592.39,535.66 C582.90,547.72 565.85,569.05 562.14,573.50 C558.06,578.39 532.36,610.38 531.13,612.09 C530.37,613.14 529.47,613.99 529.13,613.98 C528.78,613.97 526.40,611.16 523.83,607.73 Z" fill="rgb(1,1,249)"/>
<path d="M 124.48 604.75 C124.23,604.06 123.90,566.94 123.76,522.25 C123.55,455.98 123.74,441.00 124.80,441.00 C125.52,441.00 144.78,453.63 167.61,469.06 C222.26,506.02 253.98,527.00 255.19,527.00 C256.28,527.00 323.93,481.96 359.50,457.55 C372.15,448.87 383.06,441.55 383.75,441.28 C384.73,440.89 385.00,445.51 385.00,462.41 L 385.00 484.03 L 357.75 501.93 C342.76,511.78 320.38,526.49 308.00,534.63 C295.62,542.78 278.69,553.84 270.36,559.21 L 255.22 568.99 L 226.61 549.74 C210.88,539.16 190.13,525.14 180.50,518.59 C170.87,512.04 162.69,506.98 162.33,507.34 C161.96,507.71 161.72,526.57 161.79,549.25 C161.87,571.94 161.67,593.99 161.36,598.25 L 160.79 606.00 L 142.86 606.00 C129.43,606.00 124.82,605.69 124.48,604.75 ZM 348.69 605.36 C348.31,604.98 348.00,589.25 348.00,570.40 L 348.00 536.13 L 364.98 524.54 C374.32,518.17 382.65,512.69 383.49,512.36 C384.85,511.84 384.99,516.96 384.76,558.64 L 384.50 605.50 L 366.94 605.77 C357.28,605.92 349.07,605.73 348.69,605.36 ZM 696.23 603.75 C696.62,602.56 707.83,592.22 792.50,515.02 C812.85,496.46 837.60,473.80 847.50,464.66 L 865.50 448.05 L 891.81 448.02 C908.09,448.01 917.90,448.36 917.53,448.95 C916.90,449.97 884.77,478.77 852.22,507.49 L 831.83 525.48 L 835.30 528.49 C837.21,530.15 847.92,539.83 859.10,550.00 C870.27,560.17 884.61,573.19 890.96,578.92 C897.31,584.65 905.97,592.48 910.21,596.33 C914.45,600.17 917.69,603.69 917.40,604.16 C917.12,604.62 905.63,605.00 891.87,605.00 L 866.86 605.00 L 842.68 582.20 C829.38,569.66 815.93,557.01 812.78,554.09 L 807.07 548.77 L 783.78 570.24 C770.98,582.04 757.28,594.69 753.35,598.35 L 746.20 605.00 L 721.02 605.00 C701.32,605.00 695.92,604.73 696.23,603.75 ZM 750.36 498.84 C741.09,490.50 724.74,475.75 714.03,466.08 L 694.57 448.50 L 720.85 448.23 L 747.13 447.97 L 766.82 466.14 C777.64,476.14 787.84,485.59 789.47,487.15 L 792.44 489.98 L 787.47 495.07 C784.74,497.87 779.06,503.28 774.86,507.09 L 767.22 514.02 L 750.36 498.84 Z" fill="rgb(253,253,253)"/>
</g>
</svg>